# xmcd
#
# Track frame offsets: 
#        150
#        23042
#        40633
#        53530
#        72349
#        91407
#        108354
#        127011
#        143235
#        162975
#        179434
#        196822
#        210039
#
# Disc length: 3037 seconds
#
# Revision: 2
# Processed by: cddbd v1.5.2PL0 Copyright (c) Steve Scherf et al.
# Submitted via: ExactAudioCopy v1.0b3
#
DISCID=a80bdb0d
DTITLE=Винтаж - Sex
DYEAR=2009
DGENRE=Pop
TTITLE0=Sex
TTITLE1=Victoria
TTITLE2=On - Off
TTITLE3=Делай Мне Больно
TTITLE4=Девочки-Лунатики
TTITLE5=Мальчик
TTITLE6=Eva
TTITLE7=Плохая Девочка
TTITLE8=Одиночество Любви
TTITLE9=Ты Для Меня
TTITLE10=Стриптиз
TTITLE11=Sex Dance
TTITLE12=XXL
EXTD=
EXTT0=
EXTT1=
EXTT2=
EXTT3=
EXTT4=
EXTT5=
EXTT6=
EXTT7=
EXTT8=
EXTT9=
EXTT10=
EXTT11=
EXTT12=
PLAYORDER=
